<?xml version="1.0" encoding="UTF-8"?>
<!-- Created with Inkscape (http://www.inkscape.org/) -->
<svg width="32.532mm" height="10.583mm" version="1.1" viewBox="0 0 32.532 10.583" xml:space="preserve" xmlns="http://www.w3.org/2000/svg"><defs><style>.cls-1{fill:url(#linear-gradient);}</style><linearGradient id="linear-gradient" x2="273.42" y1="17.76" y2="17.76" gradientTransform="matrix(.11838 0 0 .11838 .38894 59.829)" gradientUnits="userSpaceOnUse"><stop stop-color="#90cea1" offset="0"/><stop stop-color="#3cbec9" offset=".56"/><stop stop-color="#00b3e5" offset="1"/></linearGradient></defs><g transform="translate(-.30276 -59.793)"><path class="cls-1" d="m23.099 64.016h7.5643a2.0917 2.0917 0 0 0 2.0917-2.0917 2.0917 2.0917 0 0 0-2.0917-2.0953h-7.5643a2.0917 2.0917 0 0 0-2.0917 2.0953 2.0917 2.0917 0 0 0 2.0917 2.0917zm-21.515 0.0059h0.92334v-3.3738h1.1956v-0.81911h-3.3145v0.81679h1.1956zm3.3264 0h0.92334v-3.2163h0.011812l1.0595 3.2139h0.71025l1.095-3.2139h0.011812v3.2139h0.92334v-4.1905h-1.3909l-0.97069 2.7345h-0.011819l-0.96475-2.7345h-1.3969zm6.0301-4.1787h1.385a3.9727 3.9727 0 0 1 0.95647 0.11838 2.1923 2.1923 0 0 1 0.78956 0.3646 1.7863 1.7863 0 0 1 0.53625 0.65344 2.19 2.19 0 0 1 0.19768 0.97661 2.0017 2.0017 0 0 1-0.19176 0.89728 1.9295 1.9295 0 0 1-0.51849 0.65108 2.2776 2.2776 0 0 1-0.75169 0.39891 2.9038 2.9038 0 0 1-0.89373 0.13614h-1.5093zm0.92333 3.3382h0.47352a2.564 2.564 0 0 0 0.59187-0.06509 1.2524 1.2524 0 0 0 0.48061-0.20953 1.0334 1.0334 0 0 0 0.31725-0.39656 1.4087 1.4087 0 0 0 0.11837-0.60135 1.1684 1.1684 0 0 0-0.11837-0.53506 1.0855 1.0855 0 0 0-0.31133-0.37644 1.3743 1.3743 0 0 0-0.45338-0.22136 2.0195 2.0195 0 0 0-0.55401-0.07458h-0.54452zm4.2793-3.3382h1.5626a3.891 3.891 0 0 1 0.54808 0.03918 1.4986 1.4986 0 0 1 0.49361 0.15389 0.93991 0.93991 0 0 1 0.35516 0.32199 0.98726 0.98726 0 0 1 0.13613 0.55045 0.88545 0.88545 0 0 1-0.19769 0.59187 1.0808 1.0808 0 0 1-0.5244 0.33383v0.0071a1.2169 1.2169 0 0 1 0.37642 0.11834 1.0074 1.0074 0 0 1 0.29004 0.219 0.92215 0.92215 0 0 1 0.18584 0.31015 1.0843 1.0843 0 0 1 0.06513 0.3788 1.0086 1.0086 0 0 1-0.14209 0.554 1.1033 1.1033 0 0 1-0.36694 0.35512 1.5839 1.5839 0 0 1-0.50548 0.19532 2.6635 2.6635 0 0 1-0.55992 0.05919h-1.7165zm0.92335 1.675h0.6688a0.90558 0.90558 0 0 0 0.21074-0.02368 0.56584 0.56584 0 0 0 0.18583-0.07695 0.40603 0.40603 0 0 0 0.13377-0.14206 0.42971 0.42971 0 0 0 0.04971-0.21308 0.39064 0.39064 0 0 0-0.05207-0.21544 0.40485 0.40485 0 0 0-0.14561-0.13376 0.71854 0.71854 0 0 0-0.2095-0.06749 1.1719 1.1719 0 0 0-0.21902-0.0213h-0.6274zm0 1.7342h0.8286a0.97897 0.97897 0 0 0 0.21664-0.02369 0.55282 0.55282 0 0 0 0.19767-0.08287 0.46522 0.46522 0 0 0 0.14562-0.15388 0.44983 0.44983 0 0 0 0.05566-0.23084 0.37407 0.37407 0 0 0-0.07343-0.23674 0.47351 0.47351 0 0 0-0.18704-0.13969 0.97424 0.97424 0 0 0-0.23673-0.06511 1.7898 1.7898 0 0 0-0.24269-0.01776h-0.6984z" fill="url(#linear-gradient)" stroke-width=".11838"/><g transform="matrix(.14269 0 0 .14269 .33891 64.811)"><path d="m0-1.6283e-4h126.7v39h-126.7z" fill="#00b4d7" stroke-width=".99999"/><path d="m18.192 14.625 3.28 8.719 3.274-8.719h2.555v11.375h-1.969v-3.75l0.195-5.016-3.358 8.766h-1.414l-3.352-8.758 0.196 5.008v3.75h-1.969v-11.375zm18.44 8.727h-4.406l-0.922 2.648h-2.054l4.297-11.375h1.773l4.305 11.375h-2.063zm-3.851-1.594h3.297l-1.649-4.719zm8.619 4.242v-11.375h3.36c1.005 0 1.896 0.224 2.672 0.672 0.781 0.448 1.385 1.083 1.812 1.906s0.64 1.766 0.64 2.828v0.57c0 1.079-0.215 2.027-0.647 2.844a4.496 4.496 0 0 1-1.836 1.89c-0.792 0.444-1.701 0.665-2.727 0.665zm1.977-9.781v8.203h1.29c1.036 0 1.83-0.323 2.382-0.969 0.557-0.65 0.841-1.583 0.852-2.797v-0.633c0-1.234-0.269-2.177-0.805-2.828-0.537-0.65-1.315-0.976-2.336-0.976zm15.605 4.703h-4.672v3.5h5.461v1.578h-7.437v-11.375h7.383v1.594h-5.407v3.14h4.672zm20.73 2.265 1.75-8.562h1.96l-2.624 11.375h-1.89l-2.165-8.305-2.21 8.305h-1.899l-2.624-11.375h1.961l1.766 8.547 2.172-8.547h1.656zm7.721 2.813h-1.968v-11.375h1.968zm10.894-9.781h-3.546v9.781h-1.961v-9.781h-3.516v-1.594h9.023zm11.013 9.781h-1.969v-5.055h-5.086v5.055h-1.977v-11.375h1.977v4.734h5.086v-4.734h1.969z" fill="#eafafd"/><path d="m124.87 0h103.13v39h-103.14z" fill="#0078b7"/><g fill="#91e0ef"><path d="m141.95 25-2.16-3.12h-2.384v3.12h-2.592v-11.2h4.848c0.992 0 1.851 0.165 2.576 0.496 0.736 0.33 1.302 0.8 1.696 1.408 0.395 0.608 0.592 1.328 0.592 2.16s-0.202 1.552-0.608 2.16c-0.394 0.597-0.96 1.056-1.696 1.376l2.512 3.6zm-0.048-7.136c0-0.63-0.202-1.11-0.608-1.44-0.405-0.341-0.997-0.512-1.776-0.512h-2.112v3.904h2.112c0.779 0 1.371-0.17 1.776-0.512 0.406-0.341 0.608-0.821 0.608-1.44zm13.83 5.056v2.08h-8.672v-11.2h8.464v2.08h-5.888v2.432h5.2v2.016h-5.2v2.592zm9.918-0.32h-5.2l-0.992 2.4h-2.656l4.992-11.2h2.56l5.008 11.2h-2.72zm-0.816-1.968-1.776-4.288-1.776 4.288zm11.374 4.56c-1.141 0-2.176-0.245-3.104-0.736a5.703 5.703 0 0 1-2.176-2.064c-0.523-0.885-0.784-1.883-0.784-2.992s0.261-2.101 0.784-2.976a5.55 5.55 0 0 1 2.176-2.064c0.928-0.501 1.968-0.752 3.12-0.752 0.971 0 1.845 0.17 2.624 0.512a5.257 5.257 0 0 1 1.984 1.472l-1.664 1.536c-0.757-0.875-1.696-1.312-2.816-1.312-0.693 0-1.312 0.155-1.856 0.464a3.24 3.24 0 0 0-1.28 1.264c-0.299 0.544-0.448 1.163-0.448 1.856s0.149 1.312 0.448 1.856c0.309 0.544 0.736 0.97 1.28 1.28 0.544 0.299 1.163 0.448 1.856 0.448 1.12 0 2.059-0.443 2.816-1.328l1.664 1.536c-0.533 0.65-1.195 1.147-1.984 1.488s-1.669 0.512-2.64 0.512zm9.065-9.28h-3.584v-2.112h9.76v2.112h-3.584v9.088h-2.592zm30.423 0.596c-0.211-0.07-0.386-0.14-0.562-0.176 0-0.14 0.035-0.281 0.07-0.422 0.422-2.074 0.141-3.762-0.808-4.324-0.915-0.527-2.426 0.035-3.973 1.371-0.141 0.106-0.281 0.246-0.422 0.387-0.105-0.106-0.211-0.176-0.281-0.281-1.617-1.407-3.235-2.004-4.184-1.442-0.914 0.527-1.195 2.11-0.808 4.113 0.035 0.176 0.07 0.387 0.14 0.563-0.246 0.07-0.457 0.14-0.668 0.21-1.863 0.669-3.199 1.688-3.199 2.743 0 1.09 1.406 2.215 3.375 2.883 0.141 0.035 0.316 0.105 0.457 0.14-0.035 0.211-0.07 0.422-0.141 0.633-0.351 1.934-0.07 3.48 0.844 4.008 0.949 0.563 2.567 0 4.113-1.371 0.106-0.105 0.247-0.211 0.352-0.316 0.176 0.14 0.316 0.28 0.492 0.421 1.512 1.301 2.988 1.829 3.903 1.301 0.949-0.562 1.265-2.215 0.878-4.254-0.035-0.14-0.07-0.316-0.105-0.457l0.316-0.105c2.039-0.668 3.516-1.758 3.516-2.883 0-1.055-1.406-2.11-3.305-2.742zm-4.781-2.988c1.336-1.16 2.531-1.583 3.094-1.266 0.597 0.316 0.844 1.723 0.457 3.515-0.035 0.141-0.035 0.247-0.07 0.352a18.697 18.697 0 0 0-2.391-0.352 19.47 19.47 0 0 0-1.477-1.898c0.141-0.105 0.246-0.246 0.387-0.352zm-4.043 7.558c0.176 0.316 0.352 0.598 0.563 0.914-0.563-0.07-1.125-0.14-1.653-0.281 0.176-0.492 0.352-1.02 0.563-1.547 0.176 0.316 0.351 0.598 0.527 0.914zm-1.09-4.219c0.528-0.14 1.055-0.21 1.617-0.28-0.175 0.28-0.351 0.597-0.527 0.878-0.176 0.316-0.351 0.598-0.527 0.914-0.211-0.527-0.387-1.02-0.563-1.512zm0.985 2.426c0.211-0.492 0.492-0.984 0.738-1.441 0.281-0.457 0.562-0.914 0.879-1.371 0.527-0.035 1.055-0.07 1.617-0.07 0.527 0 1.09 0.035 1.582 0.07 0.316 0.457 0.598 0.914 0.879 1.37 0.246 0.458 0.527 0.915 0.738 1.407-0.211 0.492-0.457 0.984-0.738 1.441l-0.844 1.371c-0.527 0.036-1.09 0.07-1.617 0.07-0.562 0-1.09-0.034-1.617-0.07-0.317-0.457-0.598-0.914-0.879-1.37-0.246-0.458-0.492-0.95-0.738-1.407zm6.328 1.793c0.211-0.316 0.351-0.633 0.527-0.95 0.211 0.528 0.422 1.02 0.598 1.548-0.563 0.14-1.09 0.246-1.653 0.281 0.176-0.281 0.352-0.598 0.528-0.879zm0.527-2.707c-0.176-0.316-0.351-0.598-0.527-0.914-0.176-0.281-0.352-0.598-0.528-0.879 0.563 0.07 1.125 0.176 1.618 0.281-0.176 0.528-0.352 1.02-0.563 1.512zm-3.621-3.937c0.352 0.386 0.703 0.808 1.02 1.265a20.454 20.454 0 0 0-2.075 0 20.1 20.1 0 0 1 1.055-1.265zm-4.078-2.18c0.598-0.317 1.898 0.176 3.269 1.371 0.106 0.105 0.176 0.176 0.282 0.246a15.526 15.526 0 0 0-1.512 1.898c-0.809 0.07-1.582 0.176-2.356 0.352a2.644 2.644 0 0 1-0.14-0.562c-0.317-1.688-0.106-2.954 0.457-3.305zm-0.879 9.281a1.986 1.986 0 0 1-0.422-0.14c-0.738-0.247-1.617-0.598-2.215-1.09a1.633 1.633 0 0 1-0.668-1.055c0-0.633 1.125-1.477 2.707-2.04 0.211-0.07 0.422-0.105 0.633-0.175 0.211 0.774 0.527 1.512 0.844 2.25-0.352 0.703-0.633 1.477-0.879 2.25zm4.113 3.445a6.543 6.543 0 0 1-2.004 1.23c-0.386 0.212-0.808 0.212-1.23 0.071-0.563-0.351-0.774-1.582-0.457-3.234 0.035-0.211 0.07-0.422 0.105-0.598 0.809 0.176 1.582 0.281 2.391 0.352a24.86 24.86 0 0 0 1.512 1.863zm0.844-0.843a14.064 14.064 0 0 1-1.055-1.301c0.352 0.035 0.703 0.035 1.055 0.035s0.703 0 1.055-0.035a12.23 12.23 0 0 1-1.055 1.3zm4.605 1.054a1.654 1.654 0 0 1-0.562 1.09c-0.563 0.317-1.758-0.105-3.059-1.195a5.28 5.28 0 0 0-0.457-0.422 15.183 15.183 0 0 0 1.512-1.863c0.809-0.07 1.582-0.211 2.391-0.387l0.105 0.422c0.141 0.773 0.176 1.582 0.07 2.355zm0.633-3.797c-0.105 0.036-0.176 0.07-0.281 0.106a17.666 17.666 0 0 0-0.914-2.25 15.23 15.23 0 0 0 0.879-2.215c0.176 0.07 0.351 0.106 0.527 0.176 1.617 0.562 2.778 1.406 2.778 2.039 0 0.668-1.231 1.582-2.989 2.144zm-5.238-0.527c0.879 0 1.582-0.703 1.582-1.617 0-0.879-0.703-1.582-1.582-1.582-0.914 0-1.617 0.703-1.617 1.582 0 0.914 0.703 1.617 1.617 1.617z"/></g></g></g></svg>
